<svg width="12" height="12" viewBox="0 0 12 12" fill="none" xmlns="http://www.w3.org/2000/svg">
<path d="M7.17499 5.99999L10.7583 2.42499C10.9152 2.26807 11.0034 2.05524 11.0034 1.83333C11.0034 1.61141 10.9152 1.39858 10.7583 1.24166C10.6014 1.08474 10.3886 0.996582 10.1667 0.996582C9.94474 0.996582 9.73192 1.08474 9.575 1.24166L5.99999 4.82499L2.42499 1.24166C2.26808 1.08474 2.05525 0.996582 1.83333 0.996582C1.61141 0.996582 1.39858 1.08474 1.24166 1.24166C1.08474 1.39858 0.996585 1.61141 0.996585 1.83333C0.996585 2.05524 1.08474 2.26807 1.24166 2.42499L4.82499 5.99999L1.24166 9.57499C1.16355 9.65246 1.10156 9.74463 1.05925 9.84618C1.01695 9.94773 0.995163 10.0566 0.995163 10.1667C0.995163 10.2767 1.01695 10.3856 1.05925 10.4871C1.10156 10.5887 1.16355 10.6809 1.24166 10.7583C1.31913 10.8364 1.4113 10.8984 1.51285 10.9407C1.6144 10.983 1.72332 11.0048 1.83333 11.0048C1.94334 11.0048 2.05226 10.983 2.15381 10.9407C2.25536 10.8984 2.34753 10.8364 2.42499 10.7583L5.99999 7.17499L9.575 10.7583C9.65246 10.8364 9.74463 10.8984 9.84618 10.9407C9.94773 10.983 10.0567 11.0048 10.1667 11.0048C10.2767 11.0048 10.3856 10.983 10.4871 10.9407C10.5887 10.8984 10.6809 10.8364 10.7583 10.7583C10.8364 10.6809 10.8984 10.5887 10.9407 10.4871C10.983 10.3856 11.0048 10.2767 11.0048 10.1667C11.0048 10.0566 10.983 9.94773 10.9407 9.84618C10.8984 9.74463 10.8364 9.65246 10.7583 9.57499L7.17499 5.99999Z" fill="#111827"/>
</svg>
